<?xml version="1.0" encoding="UTF-8" standalone="no"?>
<!-- Created with Inkscape (http://www.inkscape.org/) -->

<svg
   xmlns:dc="http://purl.org/dc/elements/1.1/"
   xmlns:cc="http://creativecommons.org/ns#"
   xmlns:rdf="http://www.w3.org/1999/02/22-rdf-syntax-ns#"
   xmlns:svg="http://www.w3.org/2000/svg"
   xmlns="http://www.w3.org/2000/svg"
   xmlns:sodipodi="http://sodipodi.sourceforge.net/DTD/sodipodi-0.dtd"
   xmlns:inkscape="http://www.inkscape.org/namespaces/inkscape"
   width="210mm"
   height="297mm"
   viewBox="0 0 210 297"
   version="1.1"
   id="svg5889"
   inkscape:version="0.92.5 (2060ec1f9f, 2020-04-08)"
   sodipodi:docname="tiecd.svg">
  <defs
     id="defs5883" />
  <sodipodi:namedview
     id="base"
     pagecolor="#ffffff"
     bordercolor="#666666"
     borderopacity="1.0"
     inkscape:pageopacity="0.0"
     inkscape:pageshadow="2"
     inkscape:zoom="0.35"
     inkscape:cx="-115.71429"
     inkscape:cy="560"
     inkscape:document-units="mm"
     inkscape:current-layer="layer1"
     showgrid="false"
     inkscape:window-width="1848"
     inkscape:window-height="1136"
     inkscape:window-x="72"
     inkscape:window-y="27"
     inkscape:window-maximized="1" />
  <metadata
     id="metadata5886">
    <rdf:RDF>
      <cc:Work
         rdf:about="">
        <dc:format>image/svg+xml</dc:format>
        <dc:type
           rdf:resource="http://purl.org/dc/dcmitype/StillImage" />
        <dc:title></dc:title>
      </cc:Work>
    </rdf:RDF>
  </metadata>
  <g
     inkscape:label="Layer 1"
     inkscape:groupmode="layer"
     id="layer1">
    <g
       transform="translate(-6.803724,118.30486)"
       id="g5856"
       inkscape:export-xdpi="96"
       inkscape:export-ydpi="96">
      <g
         transform="matrix(0.35277777,0,0,-0.35277777,102.39188,27.803335)"
         id="g3780">
        <path
           inkscape:connector-curvature="0"
           id="path3782"
           style="fill:#000032;fill-opacity:1;fill-rule:nonzero;stroke:none"
           d="m 0,0 h 9.455 v -24.566 h 5.783 V 0 h 9.455 V 5.107 H 0 Z" />
      </g>
      <path
         inkscape:connector-curvature="0"
         id="path3784"
         style="fill:#000032;fill-opacity:1;fill-rule:nonzero;stroke:none;stroke-width:0.35277778"
         d="m 114.52849,28.024491 h -2.02529 v -2.023533 h 2.02529 z" />
      <path
         inkscape:connector-curvature="0"
         id="path3786"
         style="fill:#000032;fill-opacity:1;fill-rule:nonzero;stroke:none;stroke-width:0.35277778"
         d="m 112.5032,28.750861 h 2.02529 v 7.71913 h -2.02529 z" />
      <g
         transform="matrix(0.35277777,0,0,-0.35277777,118.69716,32.002555)"
         id="g3788">
        <path
           inkscape:connector-curvature="0"
           id="path3790"
           style="fill:#000032;fill-opacity:1;fill-rule:nonzero;stroke:none"
           d="M 0,0 H 13.465 V 4.938 H 0 v 7.007 h 14.689 v 5.066 H 0 -1.52 -5.74 V -12.663 H -1.52 0 14.9 v 5.065 H 0 Z" />
      </g>
      <g
         transform="matrix(0.35277777,0,0,-0.35277777,131.80162,34.46699)"
         id="g3800">
        <path
           inkscape:connector-curvature="0"
           id="path3802"
           style="fill:#000032;fill-opacity:1;fill-rule:nonzero;stroke:none"
           d="m 0,0 c -1.183,-0.521 -2.604,-0.781 -4.264,-0.781 -1.379,0 -2.638,0.239 -3.778,0.718 -1.14,0.478 -2.132,1.153 -2.976,2.026 -0.843,0.872 -1.492,1.92 -1.941,3.144 -0.451,1.225 -0.676,2.582 -0.676,4.074 0,1.463 0.225,2.807 0.676,4.031 0.449,1.224 1.098,2.279 1.941,3.165 0.844,0.887 1.836,1.562 2.976,2.027 1.14,0.464 2.386,0.696 3.735,0.696 1.577,0 2.955,-0.253 4.138,-0.76 1.182,-0.506 2.18,-1.21 2.997,-2.11 l 3.925,3.925 c -1.379,1.323 -2.962,2.371 -4.749,3.145 -1.787,0.774 -3.891,1.161 -6.311,1.161 -2.167,0 -4.177,-0.395 -6.035,-1.182 -1.857,-0.788 -3.476,-1.872 -4.854,-3.25 -1.379,-1.38 -2.449,-2.997 -3.208,-4.854 -0.76,-1.858 -1.14,-3.856 -1.14,-5.994 0,-2.139 0.38,-4.137 1.14,-5.994 0.759,-1.857 1.836,-3.482 3.229,-4.875 1.393,-1.394 3.018,-2.484 4.875,-3.272 1.858,-0.787 3.883,-1.182 6.078,-1.182 2.365,0 4.467,0.388 6.311,1.162 1.843,0.773 3.468,1.835 4.875,3.186 L 3.038,2.132 C 2.194,1.23 1.181,0.521 0,0" />
      </g>
      <g
         transform="matrix(0.35277777,0,0,-0.35277777,142.664,33.037463)"
         id="g3804">
        <path
           inkscape:connector-curvature="0"
           id="path3806"
           style="fill:#000032;fill-opacity:1;fill-rule:nonzero;stroke:none"
           d="m 0,0 c -0.802,-1.478 -1.928,-2.617 -3.377,-3.419 -1.449,-0.802 -3.117,-1.203 -5.001,-1.203 h -5.741 v 19.459 h 5.741 c 1.884,0 3.545,-0.408 4.981,-1.224 1.434,-0.817 2.559,-1.942 3.376,-3.377 C 0.795,8.801 1.203,7.112 1.203,5.171 1.203,3.201 0.802,1.477 0,0 m 5.931,11.038 c -0.76,1.8 -1.829,3.37 -3.208,4.707 -1.379,1.336 -3.012,2.37 -4.897,3.102 -1.886,0.732 -3.926,1.097 -6.12,1.097 h -5.825 -1.942 -3.798 V -9.729 h 3.925 1.815 5.909 c 2.167,0 4.186,0.365 6.058,1.097 1.871,0.732 3.496,1.766 4.875,3.102 1.379,1.337 2.448,2.913 3.208,4.728 0.759,1.815 1.139,3.792 1.139,5.93 0,2.139 -0.38,4.109 -1.139,5.91" />
      </g>
    </g>
    <g
       transform="translate(-6.803724,118.30486)"
       id="g5844"
       inkscape:export-xdpi="96"
       inkscape:export-ydpi="96">
      <g
         transform="matrix(0.35277777,0,0,-0.35277777,84.631884,35.074191)"
         id="g3808">
        <path
           inkscape:connector-curvature="0"
           id="path3810"
           style="fill:#000032;fill-opacity:1;fill-rule:nonzero;stroke:none"
           d="m 0,0 h 4.016 v -5.03 l -16.817,-5.387 V 36.188 L 4.016,30.802 v -5.03 H 0 Z" />
      </g>
      <g
         transform="matrix(0.35277777,0,0,-0.35277777,93.724519,35.074191)"
         id="g3812">
        <path
           inkscape:connector-curvature="0"
           id="path3814"
           style="fill:#000032;fill-opacity:1;fill-rule:nonzero;stroke:none"
           d="m 0,0 h -4.016 v -5.03 l 16.817,-5.387 V 36.188 L -4.016,30.802 v -5.03 H 0 Z" />
      </g>
      <path
         inkscape:connector-curvature="0"
         id="path3816"
         style="fill:#000032;fill-opacity:1;fill-rule:nonzero;stroke:none;stroke-width:0.35277778"
         d="m 92.179317,33.529236 h -6.002161 v -6.002514 h 6.002161 z" />
    </g>
  </g>
</svg>
